<svg id="Layer_1" enable-background="new 0 0 500 500" viewBox="0 0 500 500" xmlns="http://www.w3.org/2000/svg"><g><path d="m50.25 234.823 1.672 16.081.398 4.459 1.273 12.258v.08c-.238 2.548 1.433 5.176 4.936 7.323l257.891 150.433c.398.239.797.478 1.275.558 3.184 1.592 7.085 2.468 11.065 2.388l72.763 7.881c9.553.954 19.504.159 26.908-3.185 2.07-.954 3.981-1.99 5.572-3.264 2.628-1.91 4.299-4.219 5.175-6.606l.08-.16 8.041-11.386 3.901-5.572.08-.159 5.891-8.359-.477-.237-26.112-10.668-82.793-33.754-285.719-116.468z" fill="#deccc5"/><path d="m33.589 209.484 17.932 42.451v.08c-.236 2.59 1.492 5.26 5.026 7.381l265.01 153.249c3.455 1.963 8.01 3.062 12.641 2.983l74.675 8.009c9.815 1.022 20.023.157 27.561-3.219 2.121-.943 4.083-2.041 5.732-3.297 2.671-1.963 4.398-4.319 5.34-6.754l.079-.157 18.374-25.913-27.325-11.071-377.929-152.803z" fill="#ad5130"/><path d="m25.689 200.084 22.772 44.684v.081c-.159 1.672.478 3.343 1.911 4.935.159.239.398.399.557.558.716.716 1.592 1.353 2.627 1.99l269.949 156.089c.238.159.477.239.795.398 3.345 1.751 7.643 2.706 12.021 2.626l75.708 8.12c9.951 1.036 20.301.16 27.943-3.263 2.149-.956 4.14-2.07 5.811-3.343.239-.239.558-.399.797-.717 0 0 .08.08.08-.08.239-.08.399-.239.636-.479 1.831-1.671 3.105-3.582 3.901-5.572l.08-.159 5.891-8.359 12.737-17.912-27.704-11.224-38.371-15.524-344.785-139.393z" fill="#448187"/><g><path d="m30.171 204.629 303.851 175.429c3.621 2.09 8.644 3.163 13.75 2.935l82.091 7.068c10.803.93 22.191-.279 30.751-4.196 2.443-1.118 4.656-2.396 6.591-3.808 6.78-4.944 8.867-11.52 7.25-17.757l-12.281-47.358c.391-2.946-1.467-5.844-5.085-7.933l-303.855-175.431c-6.848-3.954-17.952-3.954-24.8.001l-98.263 56.731c-6.849 3.954-6.849 10.365 0 14.319z" fill="#c75d37"/><path d="m42.574 204.387 293.734 169.588c3.501 2.021 8.244 3.123 12.985 3.015l76.882 8.262c10.118 1.087 20.649.194 28.38-3.278 2.207-.991 4.189-2.136 5.904-3.411 6.011-4.466 7.551-10.547 5.661-16.388l-14.344-44.354c.183-2.736-1.724-5.472-5.222-7.492l-293.739-169.59c-6.62-3.822-16.96-4.049-23.095-.507l-88.025 50.822c-6.135 3.541-5.741 9.511.879 13.333z" fill="#ad5130"/></g><path d="m30.147 204.623 303.866 175.457c3.662 2.07 8.677 3.104 13.772 2.945l82.076 7.007c10.828.954 22.211-.239 30.73-4.14 2.467-1.114 4.697-2.389 6.607-3.821 4.856-3.503 7.245-7.961 7.643-12.42l.158.08v-15.921l-.079-.08c-.159 2.07-.637 4.06-1.672 6.05-1.274 2.468-3.264 4.777-6.05 6.848 0 0-.08 0-.08.079-1.91 1.353-4.06 2.628-6.527 3.741-8.519 3.901-19.902 5.094-30.73 4.22l-82.076-7.086c-5.095.239-10.111-.875-13.772-2.945l-254.668-146.958-48.322-27.863-.875-.558c-2.866-1.672-4.538-3.741-5.016-5.891v12.818c-.637 2.945 1.035 6.13 5.015 8.438z" fill="#539fa6"/><path d="m25.132 183.368c.478 2.15 2.149 4.219 5.016 5.891l.875.558 5.015-2.947 92.426-53.258c3.741-2.149 8.677-3.185 13.613-2.945 4.06.078 8.04 1.114 11.145 2.945l303.866 175.378c3.583 2.07 5.493 5.014 5.095 7.961l9.155 35.505 1.911 7.323c1.035-1.99 1.513-3.98 1.672-6.05.079-1.592-.08-3.263-.478-4.855l-12.26-47.367c.399-2.947-1.512-5.811-5.095-7.883l-303.867-175.456c-3.104-1.833-7.084-2.867-11.145-2.946-4.935-.239-9.871.797-13.613 2.946l-98.317 56.76c-3.979 2.31-5.651 5.413-5.014 8.44z" fill="#ad5130"/><path d="m317.694 426.015c3.184 1.592 7.085 2.468 11.065 2.388l72.763 7.881c9.553.954 19.504.159 26.908-3.185 2.07-.954 3.981-1.99 5.572-3.264 2.628-1.91 4.299-4.219 5.175-6.606l.08-.16 8.041-11.386c1.831-1.671 3.105-3.582 3.901-5.572l.08-.159 5.891-8.359 12.657-17.753.08-.159-16.558-6.685c-7.245 1.831-15.524 2.309-23.485 1.671l-82.076-7.086c-2.547.08-5.015-.078-7.324-.556l-5.253 13.613-10.911 28.182-1.671 4.3z" fill="#27494d" opacity=".3"/><g fill="#539fa6"><path d="m30.147 204.623 303.866 175.457c.398.239.796.398 1.194.558 3.502 1.751 8.04 2.546 12.578 2.387l82.076 7.007c10.828.954 22.211-.239 30.73-4.14 2.467-1.114 4.697-2.389 6.607-3.821.955-.717 1.831-1.433 2.627-2.23l.08-.159c3.105-3.024 4.618-6.527 4.936-10.031l.158.08v-15.921l-.079-.08c-.159 2.07-.637 4.06-1.672 6.05-1.274 2.468-3.264 4.777-6.05 6.848 0 0-.08 0-.08.079-1.91 1.353-4.06 2.628-6.527 3.741-2.229 1.036-4.698 1.831-7.245 2.549-7.245 1.831-15.524 2.309-23.485 1.671l-82.076-7.086c-2.547.08-5.015-.078-7.324-.556-2.387-.558-4.617-1.354-6.448-2.389l-254.668-146.958-48.322-27.863-.875-.558c-2.866-1.672-4.538-3.741-5.016-5.891v12.818c-.637 2.945 1.035 6.13 5.015 8.438z"/><path d="m319.582 381.935c0 1.281.899 2.838 2.008 3.478 1.11.641 2.009.121 2.009-1.159 0-1.281-.899-2.838-2.009-3.479-1.109-.64-2.008-.12-2.008 1.16z"/><path d="m304.66 373.32c0 1.281.899 2.838 2.008 3.479 1.109.64 2.008.121 2.008-1.159 0-1.281-.899-2.838-2.008-3.478-1.109-.642-2.008-.123-2.008 1.158z"/><path d="m289.738 364.705c0 1.281.899 2.838 2.009 3.478 1.109.641 2.008.122 2.008-1.159s-.899-2.838-2.008-3.478c-1.11-.641-2.009-.122-2.009 1.159z"/><path d="m274.816 356.09c0 1.281.9 2.838 2.009 3.479 1.109.64 2.008.121 2.008-1.16s-.899-2.838-2.008-3.478c-1.109-.641-2.009-.122-2.009 1.159z"/></g><g><path d="m298.015 384.645 19.68 11.362c0-2.274-1.582-5.014-3.55-6.15l-12.579-7.262c-1.969-1.136-3.551-.223-3.551 2.05z" fill="#3a6d73"/><path d="m298.015 384.645c0 2.271 1.582 5.057 3.55 6.193l12.579 7.263c1.968 1.136 3.55.178 3.55-2.093z" fill="#27494d"/></g><g fill="#27494d"><path d="m203.144 329.467c1.468.848 2.658-.052 2.658-2.01v-5.866c0-1.957-1.19-4.231-2.658-5.079-1.468-.848-2.658.052-2.658 2.01v5.866c0 1.958 1.19 4.232 2.658 5.079z"/><path d="m192.495 323.319c1.468.848 2.658-.052 2.658-2.01v-5.866c0-1.957-1.19-4.231-2.658-5.079-1.468-.847-2.658.052-2.658 2.01v5.866c0 1.958 1.19 4.232 2.658 5.079z"/><path d="m181.846 317.171c1.468.847 2.658-.052 2.658-2.01v-5.866c0-1.957-1.19-4.232-2.658-5.079-1.468-.847-2.659.052-2.659 2.01v5.866c.001 1.957 1.191 4.231 2.659 5.079z"/><path d="m171.197 311.023c1.468.847 2.658-.052 2.658-2.01v-5.866c0-1.957-1.19-4.232-2.658-5.079-1.468-.848-2.658.052-2.658 2.01v5.866c0 1.957 1.19 4.231 2.658 5.079z"/><path d="m160.548 304.874c1.468.848 2.659-.052 2.659-2.01v-5.866c0-1.958-1.19-4.231-2.659-5.079-1.468-.847-2.658.052-2.658 2.01v5.865c-.001 1.959 1.19 4.233 2.658 5.08z"/><path d="m149.899 298.726c1.468.848 2.658-.052 2.658-2.01v-5.866c0-1.957-1.19-4.231-2.658-5.079-1.468-.847-2.659.052-2.659 2.01v5.866c0 1.957 1.191 4.232 2.659 5.079z"/></g><path d="m25.132 183.368c.478 2.15 2.149 4.219 5.016 5.891l.875.558 5.015-2.947 92.426-53.258c3.741-2.149 8.677-3.185 13.613-2.945v-15.445c-4.935-.239-9.871.797-13.613 2.946l-98.317 56.76c-3.98 2.31-5.652 5.413-5.015 8.44z" fill="#944529"/><g><g><path d="m427.425 336.517v20.795c0 1.077.694 2.153 2.118 2.952 2.847 1.631 7.395 1.631 10.241 0 1.389-.798 2.118-1.875 2.118-2.952v-20.795z" fill="#803b23"/><path d="m429.558 339.456c2.822 1.629 7.396 1.629 10.218-.001 2.822-1.629 2.822-4.27 0-5.899s-7.396-1.629-10.218 0c-2.822 1.63-2.822 4.271 0 5.9z" fill="#944529"/></g><g><path d="m424.076 335.385v2.275c0 1.574 1.016 3.149 3.098 4.317 4.164 2.386 10.816 2.386 14.98 0 2.031-1.168 3.098-2.742 3.098-4.317v-2.275z" fill="#803b23"/><path d="m427.196 339.683c4.127 2.383 10.817 2.383 14.944 0s4.127-6.246 0-8.628-10.817-2.382-14.944.001c-4.126 2.381-4.127 6.244 0 8.627z" fill="#944529"/></g><g><path d="m429.378 294.808v40.051c0 .786.507 1.572 1.547 2.155 2.079 1.191 5.4 1.191 7.479 0 1.014-.583 1.547-1.369 1.547-2.155v-40.051z" fill="#bdada7"/><path d="m430.935 296.954c2.06 1.189 5.401 1.189 7.461 0 2.061-1.189 2.061-3.118 0-4.308-2.06-1.189-5.401-1.189-7.461 0-2.06 1.19-2.06 3.118 0 4.308z" fill="#deccc5"/></g><g><path d="m427.425 294.034v1.556c0 1.077.694 2.153 2.118 2.951 2.847 1.632 7.395 1.632 10.241 0 1.389-.798 2.118-1.875 2.118-2.951v-1.556z" fill="#bdada7"/><path d="m429.558 296.973c2.822 1.629 7.396 1.629 10.218 0s2.822-4.27 0-5.9c-2.822-1.629-7.396-1.629-10.218.001-2.822 1.628-2.822 4.269 0 5.899z" fill="#d4c2bb"/></g><g><path d="m432.196 246.91v46.475c0 .367.237.734.722 1.006.971.556 2.521.556 3.492 0 .474-.273.722-.639.722-1.006v-46.475z" fill="#bdada7"/><path d="m432.923 247.912c.962.555 2.522.555 3.484 0 .962-.556.962-1.456 0-2.012s-2.522-.556-3.484 0-.962 1.457 0 2.012z" fill="#deccc5"/></g></g><g><g><g enable-background="new"><g><path d="m206.637 133.445-6.991-4.063.028 10.078 6.992 4.063z" fill="#a1a1a1"/></g><g><path d="m217.395 101.977-6.991-4.063-10.758 31.468 6.991 4.063z" fill="#c4c4c4"/></g><g><path d="m221.733 99.472-6.991-4.063-4.338 2.505 6.991 4.063z" fill="#b4b4b4"/></g><g><path d="m217.395 101.977-10.758 31.468.029 10.078 15.067-44.051z" fill="#707070"/></g></g></g><g><path d="m144.067 239.108 76.532-44.186v-63.353l-76.532 44.186z" fill="#bfbfbf"/><g><g><g><g><path d="m209.008 151.48 2.226-1.285c.811-.468 1.468-1.724 1.468-2.805v-5.123c0-1.081-.657-1.578-1.468-1.11l-2.226 1.286c-.811.468-1.468 1.724-1.468 2.805v5.123c0 1.081.657 1.578 1.468 1.109z" fill="#a1a1a1"/><path d="m209.802 150.047.639-.368c.81-.469 1.468-1.724 1.468-2.805v-3.172c0-1.081-.657-1.578-1.468-1.11l-.639.369c-.811.468-1.468 1.724-1.468 2.805v3.172c-.001 1.08.657 1.577 1.468 1.109z" fill="#808080"/></g><g><path d="m201.114 156.038 2.227-1.286c.811-.468 1.468-1.724 1.468-2.805v-5.123c0-1.081-.657-1.578-1.468-1.11l-2.227 1.286c-.81.469-1.468 1.724-1.468 2.805v5.124c0 1.08.657 1.577 1.468 1.109z" fill="#a1a1a1"/><path d="m201.908 154.604.639-.369c.81-.468 1.467-1.724 1.467-2.805v-3.172c0-1.081-.657-1.578-1.467-1.11l-.639.369c-.811.468-1.468 1.723-1.468 2.805v3.172c0 1.082.657 1.578 1.468 1.11z" fill="#808080"/></g></g><g><g><path d="m185.166 165.245 2.226-1.285c.811-.468 1.468-1.724 1.468-2.805v-5.123c0-1.081-.657-1.578-1.468-1.11l-2.226 1.286c-.811.468-1.468 1.724-1.468 2.805v5.123c0 1.081.657 1.578 1.468 1.109z" fill="#a1a1a1"/><path d="m185.96 163.812.639-.369c.811-.468 1.468-1.724 1.468-2.804v-3.172c0-1.081-.657-1.578-1.468-1.11l-.639.369c-.811.468-1.468 1.724-1.468 2.805v3.172c0 1.08.657 1.577 1.468 1.109z" fill="#808080"/></g><g><path d="m177.273 169.803 2.226-1.286c.811-.468 1.468-1.723 1.468-2.805v-5.123c0-1.081-.657-1.577-1.468-1.109l-2.226 1.285c-.811.469-1.468 1.724-1.468 2.805v5.124c0 1.08.657 1.577 1.468 1.109z" fill="#a1a1a1"/><path d="m178.067 168.369.639-.369c.81-.468 1.467-1.724 1.467-2.805v-3.172c0-1.081-.657-1.578-1.467-1.11l-.639.369c-.811.468-1.468 1.724-1.468 2.805v3.172c-.001 1.081.657 1.578 1.468 1.11z" fill="#808080"/></g></g><g><g><path d="m161.325 179.01 2.226-1.285c.811-.469 1.468-1.724 1.468-2.805v-5.123c0-1.081-.657-1.578-1.468-1.11l-2.226 1.286c-.811.468-1.468 1.723-1.468 2.805v5.123c0 1.08.657 1.577 1.468 1.109z" fill="#a1a1a1"/><path d="m162.119 177.576.639-.369c.811-.468 1.468-1.724 1.468-2.804v-3.172c0-1.081-.657-1.578-1.468-1.11l-.639.369c-.81.468-1.468 1.724-1.468 2.805v3.172c-.001 1.081.657 1.577 1.468 1.109z" fill="#808080"/></g><g><path d="m153.431 183.568 2.226-1.286c.811-.468 1.468-1.723 1.468-2.805v-5.123c0-1.081-.657-1.577-1.468-1.109l-2.226 1.285c-.811.469-1.468 1.724-1.468 2.805v5.123c0 1.081.657 1.578 1.468 1.11z" fill="#a1a1a1"/><path d="m154.225 182.134.639-.369c.811-.468 1.468-1.724 1.468-2.805v-3.172c0-1.081-.657-1.577-1.468-1.109l-.639.369c-.811.468-1.468 1.723-1.468 2.804v3.172c0 1.081.657 1.578 1.468 1.11z" fill="#808080"/></g></g></g><g><g><g><path d="m209.008 166.798 2.226-1.285c.811-.468 1.468-1.724 1.468-2.805v-5.123c0-1.081-.657-1.578-1.468-1.11l-2.226 1.286c-.811.468-1.468 1.724-1.468 2.805v5.123c0 1.08.657 1.577 1.468 1.109z" fill="#a1a1a1"/><path d="m209.802 165.364.639-.368c.81-.469 1.468-1.724 1.468-2.805v-3.172c0-1.081-.657-1.578-1.468-1.11l-.639.369c-.811.468-1.468 1.724-1.468 2.805v3.172c-.001 1.08.657 1.577 1.468 1.109z" fill="#808080"/></g><g><path d="m201.114 171.355 2.227-1.286c.811-.468 1.468-1.723 1.468-2.805v-5.123c0-1.081-.657-1.578-1.468-1.11l-2.227 1.285c-.81.469-1.468 1.724-1.468 2.805v5.124c0 1.082.657 1.578 1.468 1.11z" fill="#a1a1a1"/><path d="m201.908 169.922.639-.369c.81-.468 1.467-1.724 1.467-2.805v-3.172c0-1.081-.657-1.578-1.467-1.11l-.639.369c-.811.468-1.468 1.723-1.468 2.805v3.172c0 1.081.657 1.578 1.468 1.11z" fill="#808080"/></g></g><g><g><path d="m185.166 180.563 2.226-1.285c.811-.468 1.468-1.724 1.468-2.805v-5.124c0-1.081-.657-1.577-1.468-1.109l-2.226 1.286c-.811.468-1.468 1.723-1.468 2.805v5.123c0 1.08.657 1.577 1.468 1.109z" fill="#a1a1a1"/><path d="m185.96 179.129.639-.369c.811-.468 1.468-1.723 1.468-2.804v-3.172c0-1.081-.657-1.578-1.468-1.11l-.639.369c-.811.468-1.468 1.724-1.468 2.805v3.172c0 1.08.657 1.577 1.468 1.109z" fill="#808080"/></g><g><path d="m177.273 185.12 2.226-1.286c.811-.468 1.468-1.723 1.468-2.805v-5.123c0-1.081-.657-1.578-1.468-1.11l-2.226 1.285c-.811.468-1.468 1.724-1.468 2.805v5.123c0 1.083.657 1.579 1.468 1.111z" fill="#a1a1a1"/><path d="m178.067 183.686.639-.369c.81-.468 1.467-1.724 1.467-2.805v-3.172c0-1.081-.657-1.578-1.467-1.11l-.639.369c-.811.468-1.468 1.724-1.468 2.804v3.172c-.001 1.083.657 1.579 1.468 1.111z" fill="#808080"/></g></g><g><g><path d="m161.325 194.328 2.226-1.285c.811-.469 1.468-1.724 1.468-2.805v-5.124c0-1.081-.657-1.578-1.468-1.11l-2.226 1.286c-.811.468-1.468 1.724-1.468 2.805v5.123c0 1.081.657 1.578 1.468 1.11z" fill="#a1a1a1"/><path d="m162.119 192.894.639-.369c.811-.468 1.468-1.723 1.468-2.805v-3.172c0-1.081-.657-1.578-1.468-1.11l-.639.369c-.81.468-1.468 1.724-1.468 2.805v3.172c-.001 1.081.657 1.578 1.468 1.11z" fill="#808080"/></g><g><path d="m153.431 198.885 2.226-1.286c.811-.468 1.468-1.724 1.468-2.805v-5.123c0-1.081-.657-1.578-1.468-1.109l-2.226 1.285c-.811.468-1.468 1.724-1.468 2.805v5.123c0 1.081.657 1.578 1.468 1.11z" fill="#a1a1a1"/><path d="m154.225 197.451.639-.369c.811-.468 1.468-1.724 1.468-2.805v-3.172c0-1.081-.657-1.577-1.468-1.109l-.639.369c-.811.468-1.468 1.723-1.468 2.804v3.172c0 1.082.657 1.578 1.468 1.11z" fill="#808080"/></g></g></g><g><g><g><path d="m209.008 182.115 2.226-1.285c.811-.469 1.468-1.724 1.468-2.805v-5.124c0-1.081-.657-1.577-1.468-1.109l-2.226 1.286c-.811.468-1.468 1.723-1.468 2.805v5.123c0 1.081.657 1.577 1.468 1.109z" fill="#a1a1a1"/><path d="m209.802 180.681.639-.369c.81-.468 1.468-1.723 1.468-2.804v-3.172c0-1.081-.657-1.578-1.468-1.11l-.639.369c-.811.468-1.468 1.724-1.468 2.805v3.172c-.001 1.081.657 1.577 1.468 1.109z" fill="#808080"/></g><g><path d="m201.114 186.673 2.227-1.286c.811-.468 1.468-1.723 1.468-2.805v-5.123c0-1.081-.657-1.578-1.468-1.11l-2.227 1.285c-.81.469-1.468 1.724-1.468 2.805v5.124c0 1.081.657 1.578 1.468 1.11z" fill="#a1a1a1"/><path d="m201.908 185.239.639-.369c.81-.468 1.467-1.724 1.467-2.805v-3.172c0-1.081-.657-1.578-1.467-1.11l-.639.369c-.811.468-1.468 1.723-1.468 2.804v3.172c0 1.082.657 1.579 1.468 1.111z" fill="#808080"/></g></g><g><g><path d="m185.166 195.88 2.226-1.285c.811-.468 1.468-1.724 1.468-2.805v-5.123c0-1.081-.657-1.577-1.468-1.109l-2.226 1.286c-.811.468-1.468 1.723-1.468 2.805v5.123c0 1.079.657 1.576 1.468 1.108z" fill="#a1a1a1"/><path d="m185.96 194.446.639-.369c.811-.468 1.468-1.723 1.468-2.805v-3.172c0-1.081-.657-1.578-1.468-1.11l-.639.369c-.811.468-1.468 1.724-1.468 2.805v3.172c0 1.082.657 1.578 1.468 1.11z" fill="#808080"/></g><g><path d="m177.273 200.438 2.226-1.286c.811-.468 1.468-1.724 1.468-2.805v-5.123c0-1.081-.657-1.578-1.468-1.11l-2.226 1.285c-.811.468-1.468 1.724-1.468 2.805v5.123c0 1.082.657 1.579 1.468 1.111z" fill="#a1a1a1"/><path d="m178.067 199.004.639-.369c.81-.468 1.467-1.724 1.467-2.805v-3.172c0-1.081-.657-1.578-1.467-1.11l-.639.369c-.811.468-1.468 1.723-1.468 2.804v3.172c-.001 1.082.657 1.579 1.468 1.111z" fill="#808080"/></g></g><g><g><path d="m161.325 209.645 2.226-1.285c.811-.469 1.468-1.724 1.468-2.805v-5.124c0-1.081-.657-1.578-1.468-1.11l-2.226 1.286c-.811.468-1.468 1.723-1.468 2.805v5.123c0 1.081.657 1.578 1.468 1.11z" fill="#a1a1a1"/><path d="m162.119 208.211.639-.369c.811-.468 1.468-1.723 1.468-2.805v-3.172c0-1.081-.657-1.578-1.468-1.11l-.639.369c-.81.468-1.468 1.724-1.468 2.805v3.172c-.001 1.082.657 1.578 1.468 1.11z" fill="#808080"/></g><g><path d="m153.431 214.202 2.226-1.286c.811-.468 1.468-1.724 1.468-2.805v-5.123c0-1.081-.657-1.578-1.468-1.109l-2.226 1.285c-.811.468-1.468 1.724-1.468 2.805v5.123c0 1.082.657 1.578 1.468 1.11z" fill="#a1a1a1"/><path d="m154.225 212.769.639-.369c.811-.468 1.468-1.724 1.468-2.805v-3.172c0-1.081-.657-1.577-1.468-1.109l-.639.368c-.811.469-1.468 1.724-1.468 2.805v3.172c0 1.081.657 1.578 1.468 1.11z" fill="#808080"/></g></g></g><g><g><g><path d="m185.166 211.197 2.226-1.285c.811-.468 1.468-1.724 1.468-2.805v-5.123c0-1.081-.657-1.577-1.468-1.109l-2.226 1.286c-.811.468-1.468 1.723-1.468 2.805v5.123c0 1.08.657 1.576 1.468 1.108z" fill="#a1a1a1"/><path d="m185.96 209.764.639-.369c.811-.468 1.468-1.724 1.468-2.805v-3.172c0-1.081-.657-1.578-1.468-1.11l-.639.369c-.811.468-1.468 1.724-1.468 2.805v3.172c0 1.081.657 1.578 1.468 1.11z" fill="#808080"/></g><g><path d="m177.273 215.755 2.226-1.286c.811-.468 1.468-1.724 1.468-2.805v-5.123c0-1.081-.657-1.578-1.468-1.11l-2.226 1.285c-.811.468-1.468 1.724-1.468 2.805v5.123c0 1.082.657 1.579 1.468 1.111z" fill="#a1a1a1"/><path d="m178.067 214.321.639-.369c.81-.468 1.467-1.724 1.467-2.805v-3.172c0-1.081-.657-1.578-1.467-1.11l-.639.368c-.811.469-1.468 1.724-1.468 2.805v3.172c-.001 1.082.657 1.579 1.468 1.111z" fill="#808080"/></g></g></g></g><g fill="#a1a1a1"><path d="m144.067 241.664 76.532-44.186v-2.556l-76.532 44.186z"/><path d="m144.067 175.755 76.532-44.186v-2.556l-76.532 44.186z"/></g></g><g><path d="m114.526 222.053 29.541 17.055v-63.353l-29.541-17.055z" fill="#a1a1a1"/><path d="m114.526 224.609 29.541 17.055v-2.556l-29.541-17.055z" fill="#8c8c8c"/><path d="m114.526 158.7 29.541 17.055v-2.556l-29.541-17.056z" fill="#8c8c8c"/><g><g><path d="m132.13 197.4 2.226 1.286c.811.468 1.468-.029 1.468-1.109v-5.124c0-1.081-.657-2.336-1.468-2.805l-2.226-1.285c-.811-.468-1.468.029-1.468 1.109v5.123c0 1.081.657 2.337 1.468 2.805z" fill="#8c8c8c"/><path d="m132.924 196.883.639.369c.811.468 1.468-.029 1.468-1.11v-3.172c0-1.081-.657-2.337-1.468-2.805l-.639-.369c-.811-.468-1.468.029-1.468 1.109v3.172c0 1.082.657 2.338 1.468 2.806z" fill="#6e6e6e"/></g><g><path d="m124.236 192.843 2.226 1.285c.811.468 1.468-.029 1.468-1.11v-5.123c0-1.081-.657-2.337-1.468-2.805l-2.226-1.286c-.811-.468-1.468.029-1.468 1.11v5.123c0 1.082.658 2.338 1.468 2.806z" fill="#8c8c8c"/><path d="m125.03 192.326.639.368c.811.468 1.468-.029 1.468-1.109v-3.172c0-1.081-.657-2.337-1.468-2.805l-.639-.369c-.811-.468-1.468.029-1.468 1.11v3.172c0 1.081.657 2.336 1.468 2.805z" fill="#6e6e6e"/></g></g><g><g><path d="m132.13 211.742 2.226 1.285c.811.468 1.468-.029 1.468-1.11v-5.123c0-1.081-.657-2.337-1.468-2.805l-2.226-1.286c-.811-.468-1.468.029-1.468 1.11v5.123c0 1.082.657 2.338 1.468 2.806z" fill="#8c8c8c"/><path d="m132.924 211.225.639.369c.811.468 1.468-.029 1.468-1.11v-3.172c0-1.081-.657-2.337-1.468-2.805l-.639-.369c-.811-.468-1.468.029-1.468 1.11v3.172c0 1.081.657 2.337 1.468 2.805z" fill="#6e6e6e"/></g><g><path d="m124.236 207.185 2.226 1.286c.811.468 1.468-.029 1.468-1.11v-5.123c0-1.081-.657-2.337-1.468-2.805l-2.226-1.286c-.811-.468-1.468.029-1.468 1.11v5.123c0 1.081.658 2.337 1.468 2.805z" fill="#8c8c8c"/><path d="m125.03 206.668.639.369c.811.468 1.468-.029 1.468-1.11v-3.172c0-1.081-.657-2.337-1.468-2.805l-.639-.368c-.811-.469-1.468.029-1.468 1.109v3.172c0 1.081.657 2.337 1.468 2.805z" fill="#6e6e6e"/></g></g><g><g><path d="m132.13 226.084 2.226 1.286c.811.468 1.468-.029 1.468-1.11v-5.123c0-1.081-.657-2.337-1.468-2.805l-2.226-1.286c-.811-.468-1.468.029-1.468 1.11v5.123c0 1.081.657 2.337 1.468 2.805z" fill="#8c8c8c"/><path d="m132.924 225.567.639.368c.811.469 1.468-.029 1.468-1.11v-3.172c0-1.081-.657-2.337-1.468-2.805l-.639-.368c-.811-.468-1.468.029-1.468 1.109v3.172c0 1.082.657 2.338 1.468 2.806z" fill="#6e6e6e"/></g><g><path d="m124.236 221.526 2.226 1.286c.811.468 1.468-.029 1.468-1.11v-5.124c0-1.081-.657-2.336-1.468-2.805l-2.226-1.285c-.811-.468-1.468.029-1.468 1.11v5.123c0 1.082.658 2.337 1.468 2.805z" fill="#8c8c8c"/><path d="m125.03 221.009.639.369c.811.468 1.468-.029 1.468-1.11v-3.172c0-1.081-.657-2.337-1.468-2.805l-.639-.369c-.811-.468-1.468.029-1.468 1.11v3.172c0 1.081.657 2.337 1.468 2.805z" fill="#6e6e6e"/></g></g></g><path d="m220.599 129.013-29.54-17.054-76.532 44.185 29.54 17.055z" fill="#d1d1d1"/><g><g enable-background="new"><g><path d="m121.185 156.056-6.991-4.063-4.307 2.487 6.992 4.062z" fill="#b4b4b4"/></g><g><path d="m116.879 158.542-6.992-4.062 15.237 26.554 6.99 4.063z" fill="#737373"/></g><g><path d="m121.185 156.056-4.306 2.486 15.235 26.555-.028-10.078z" fill="#707070"/></g></g></g><g><g><path d="m106.939 160.981 146.843-84.78-22.275-12.861-146.844 84.78z" fill="#d1d1d1"/><path d="m109.409 153.287 131.048-75.66-11.42-6.593-131.048 75.66z" fill="#e6e6e6"/></g><g><g><path d="m106.94 173.849 146.843-84.78v-13.019l-146.843 84.78z" fill="#bfbfbf"/><path d="m106.94 173.849 146.843-84.78v-2.594l-146.843 84.779z" fill="#a1a1a1"/><path d="m106.94 163.425 146.843-84.78v-2.595l-146.843 84.78z" fill="#a1a1a1"/><g fill="#808080"><path d="m241.387 93.631 6.457-3.728v-7.83l-6.457 3.728z"/><path d="m230.678 99.814 6.457-3.728v-7.83l-6.457 3.728z"/><path d="m219.969 105.997 6.457-3.728v-7.83l-6.457 3.728z"/><path d="m209.26 112.18 6.457-3.728v-7.83l-6.457 3.728z"/><path d="m198.551 118.362 6.457-3.727v-7.83l-6.457 3.728z"/><path d="m187.842 124.545 6.457-3.728v-7.829l-6.457 3.727z"/><path d="m177.133 130.728 6.457-3.728v-7.829l-6.457 3.727z"/><path d="m166.424 136.911 6.457-3.728v-7.829l-6.457 3.727z"/><path d="m155.715 143.094 6.456-3.727v-7.83l-6.456 3.727z"/><path d="m145.006 149.277 6.456-3.728v-7.829l-6.456 3.727z"/><path d="m134.297 155.46 6.456-3.728v-7.83l-6.456 3.728z"/><path d="m123.588 161.642 6.456-3.727v-7.83l-6.456 3.728z"/><path d="m112.879 167.825 6.456-3.727v-7.83l-6.456 3.728z"/></g></g><g><g><path d="m84.663 160.987 22.277 12.862v-13.019l-22.277-12.861z" fill="#a1a1a1"/><g fill="#8c8c8c"><path d="m84.663 160.987 22.277 12.862v-2.595l-22.277-12.861z"/><path d="m84.663 150.564 22.277 12.861v-2.595l-22.277-12.861z"/></g></g><g fill="#6e6e6e"><path d="m97.928 166.051 6.456 3.728v-7.83l-6.456-3.727z"/><path d="m87.219 159.868 6.456 3.728v-7.83l-6.456-3.727z"/></g></g></g></g><g><path d="m150.599 98.299v14.901c.041.606.485 1.293 1.374 1.778l11.388 6.542c.889.484 1.979.767 3.029.807 1.01.041 1.979-.162 2.666-.565l12.196-7.027c.686-.404 1.01-.97.969-1.535v-5.412s0-.039 0-.081v-9.409h-31.622z" fill="#808080"/><path d="m150.599 92.806v14.902c.041.607.485 1.292 1.374 1.778l11.388 6.542c.889.485 1.979.767 3.029.808 1.01.039 1.979-.162 2.666-.566l12.196-7.027c.646-.364.969-.889.969-1.455 0 0 0-.039 0-.081v-14.82s0-.04 0-.081z" fill="#539fa6"/><path d="m169.061 101.357 12.178-7.032c1.466-.846 1.282-2.324-.411-3.302l-11.356-6.557c-1.693-.977-4.254-1.083-5.719-.237l-12.179 7.031c-1.466.846-1.282 2.325.411 3.302l11.357 6.557c1.693.978 4.253 1.084 5.719.238z" fill="#808080"/><g><path d="m150.599 86.184v6.622c.041.607.485 1.292 1.374 1.777l6.461 3.716 4.926 2.826c.889.485 1.979.767 3.029.808 1.01.04 1.979-.161 2.666-.565l5.331-3.069 6.865-3.958c.646-.364.969-.889.969-1.455 0 0 0-.04 0-.081v-6.622h-31.621z" fill="#808080"/><path d="m169.061 94.718 12.178-7.031c1.466-.846 1.282-2.325-.411-3.302l-11.356-6.557c-1.693-.977-4.254-1.083-5.719-.237l-12.179 7.031c-1.466.846-1.282 2.325.411 3.302l11.357 6.557c1.693.977 4.253 1.084 5.719.237z" fill="#999"/></g><g><path d="m156.132 77.012v8.484c0 .404.323.849.889 1.172l7.39 4.24c1.09.646 2.787.727 3.715.162l7.956-4.564c.444-.282.646-.646.606-1.01v-8.444c0 .364-.202.726-.646.969l-7.915 4.563c-.929.566-2.625.485-3.715-.162l-7.39-4.239c-.608-.364-.89-.767-.89-1.171z" fill="#808080"/><path d="m156.132 77.012c0 .404.282.807.889 1.172l7.39 4.239c1.09.647 2.787.728 3.715.162l7.915-4.563c.444-.242.646-.605.646-.969v-.041c0-.404-.282-.807-.889-1.131l-7.391-4.281c-1.09-.646-2.786-.686-3.715-.161l-7.956 4.603c-.442.242-.644.606-.604.97z" fill="#999"/><path d="m159.606 77.014c0 .268.187.535.588.775l4.892 2.806c.722.428 1.845.482 2.46.107l5.24-3.021c.294-.16.427-.401.427-.641v-.027c0-.267-.186-.534-.588-.748l-4.892-2.834c-.721-.427-1.844-.454-2.459-.106l-5.266 3.047c-.296.161-.43.402-.402.642z" fill="#575757"/></g><path d="m150.599 86.184v27.017c.041.606.485 1.293 1.374 1.778l11.388 6.542c.889.484 1.979.767 3.029.807v-27.058c-1.09-.041-2.18-.283-3.029-.808l-11.388-6.543c-.889-.483-1.334-1.13-1.374-1.735z" fill="#4d4d4d" opacity=".3"/></g><g><g><path d="m135.612 123.037v10.035h.025c0 .462.283.923.899 1.258 1.18.693 3.131.693 4.337 0 .59-.334.898-.796.898-1.258v-10.035z" fill="#616161"/><path d="m136.523 124.285c1.202.694 3.15.694 4.353 0 1.202-.694 1.202-1.819 0-2.513s-3.151-.694-4.353 0-1.202 1.819 0 2.513z" fill="#808080"/></g><g><path d="m134.538 122.207v1.654h.034c0 .623.381 1.246 1.211 1.696 1.592.934 4.222.934 5.849 0 .796-.45 1.211-1.073 1.211-1.696v-1.654z" fill="#616161"/><ellipse cx="138.701" cy="122.195" fill="#808080" rx="4.15" ry="2.396"/></g><g><path d="m135.612 111.687v10.035h.025c0 .462.283.924.899 1.257 1.18.693 3.131.693 4.337 0 .59-.334.898-.796.898-1.257v-10.035z" fill="#616161"/><path d="m136.523 112.935c1.202.694 3.15.694 4.353 0 1.202-.694 1.202-1.819 0-2.513s-3.151-.694-4.353 0c-1.202.695-1.202 1.82 0 2.513z" fill="#808080"/></g><g><path d="m135.155 110.466v1.408h.03c0 .53.324 1.06 1.031 1.444 1.355.796 3.594.796 4.979 0 .677-.383 1.031-.914 1.031-1.444v-1.408z" fill="#616161"/><path d="m136.201 111.898c1.38.796 3.617.796 4.997 0 1.38-.797 1.38-2.088 0-2.885-1.38-.796-3.617-.796-4.997 0-1.379.797-1.379 2.088 0 2.885z" fill="#808080"/></g><g><path d="m137.458 92.11v18.232h.01c0 .185.113.37.36.504.473.278 1.255.278 1.739 0 .237-.134.36-.319.36-.504v-18.232z" fill="#616161"/><path d="m137.824 92.61c.482.278 1.263.278 1.745 0s.482-.73.001-1.007c-.482-.278-1.263-.278-1.745 0-.483.278-.483.729-.001 1.007z" fill="#808080"/></g></g><g><g><path d="m192.645 88.572v9.26h.024c0 .426.261.852.829 1.16 1.09.64 2.89.64 4.003 0 .545-.308.829-.734.829-1.16v-9.26z" fill="#616161"/><path d="m193.486 89.723c1.109.64 2.908.64 4.017 0 1.109-.641 1.109-1.679 0-2.319-1.109-.641-2.908-.641-4.017 0-1.11.641-1.11 1.679 0 2.319z" fill="#808080"/></g><g><path d="m191.654 87.806v1.526h.032c0 .575.351 1.149 1.118 1.565 1.469.862 3.896.862 5.397 0 .735-.416 1.117-.99 1.117-1.565v-1.526z" fill="#616161"/><path d="m192.787 89.359c1.496.863 3.921.863 5.416 0 1.496-.864 1.496-2.264 0-3.128-1.496-.863-3.921-.863-5.416 0-1.495.864-1.495 2.264 0 3.128z" fill="#808080"/></g><g><path d="m192.645 78.098v9.261h.024c0 .426.261.852.829 1.161 1.09.64 2.89.64 4.003 0 .545-.308.829-.734.829-1.161v-9.261z" fill="#616161"/><path d="m193.486 79.25c1.109.641 2.908.641 4.017 0s1.109-1.679 0-2.319c-1.109-.641-2.908-.641-4.017 0-1.11.64-1.11 1.678 0 2.319z" fill="#808080"/></g><g><path d="m192.224 76.97v1.3h.027c0 .489.299.978.952 1.332 1.25.734 3.317.734 4.595 0 .625-.354.951-.843.951-1.332v-1.3z" fill="#616161"/><path d="m193.189 78.292c1.273.735 3.337.735 4.611 0 1.273-.735 1.273-1.927 0-2.662-1.274-.735-3.338-.735-4.611 0-1.274.735-1.274 1.927 0 2.662z" fill="#808080"/></g></g></g><g fill="#c75d37"><path d="m176.11 257.524 78.216-45.158c2.046-1.182 1.79-3.245-.573-4.609-2.363-1.364-5.938-1.512-7.984-.331l-78.216 45.158c-2.046 1.182-1.79 3.245.573 4.61 2.363 1.364 5.938 1.512 7.984.33z"/><path d="m192.984 267.266 78.216-45.158c2.047-1.181 1.79-3.245-.573-4.61-2.363-1.364-5.938-1.512-7.984-.331l-78.216 45.158c-2.047 1.182-1.79 3.245.573 4.609 2.364 1.366 5.938 1.514 7.984.332z"/><path d="m209.859 277.009 78.215-45.157c2.047-1.182 1.79-3.245-.573-4.61-2.363-1.364-5.938-1.512-7.984-.331l-78.216 45.157c-2.046 1.182-1.79 3.245.573 4.61 2.364 1.364 5.938 1.512 7.985.331z"/><path d="m226.733 286.751 78.216-45.158c2.046-1.181 1.79-3.245-.573-4.609-2.363-1.364-5.938-1.513-7.984-.331l-78.215 45.158c-2.047 1.181-1.79 3.245.573 4.61 2.362 1.364 5.936 1.512 7.983.33z"/><path d="m243.607 296.493 78.216-45.157c2.047-1.182 1.79-3.245-.573-4.61-2.363-1.364-5.937-1.512-7.984-.331l-78.216 45.158c-2.047 1.181-1.79 3.245.573 4.609 2.363 1.365 5.938 1.514 7.984.331z"/><path d="m260.482 306.236 78.216-45.158c2.046-1.181 1.79-3.245-.573-4.61-2.363-1.364-5.938-1.512-7.984-.331l-78.216 45.157c-2.046 1.181-1.79 3.245.573 4.61 2.362 1.366 5.937 1.514 7.984.332z"/><path d="m277.356 315.979 78.216-45.158c2.047-1.182 1.79-3.245-.573-4.609-2.363-1.364-5.938-1.513-7.984-.331l-78.216 45.158c-2.047 1.181-1.79 3.245.573 4.61 2.363 1.363 5.938 1.511 7.984.33z"/></g><g><path d="m320.564 356.074 105.913-61.15v-18.166l-105.913 61.15z" fill="#944529"/><path d="m320.564 337.901 105.913-61.15-4.802-2.772-105.913 61.149z" fill="#c75d37"/><path d="m315.762 335.135v18.166l4.802 2.773v-18.166z" fill="#823d24"/></g><g><g><path d="m255.941 213.263 48.831-28.192-18.761-10.832-48.831 28.193z" fill="#578cff"/><g><path d="m255.941 234.922 48.831-28.193v-21.663l-48.831 28.193z" fill="#db9b14"/><path d="m257.454 231.936 45.805-26.445v-17.439l-45.805 26.445z" fill="#f0ab17"/></g><path d="m237.18 224.09 18.761 10.832v-21.663l-18.761-10.832z" fill="#3b5fad"/><g fill="#a8a8a8"><path d="m249.317 228.365.837.484v-16.199l-.837-.483z"/><path d="m242.966 224.698.838.484v-16.198l-.838-.484z"/></g><path d="m246 229.183 1.12.646v-21.663l-1.12-.647z" fill="#737373"/></g><path d="m237.179 202.439 48.832-28.193-18.761-10.832-48.832 28.193z" fill="#578cff"/><path d="m255.941 213.266 48.831-28.193-18.761-10.832-48.831 28.193z" fill="#578cff"/><path d="m274.702 224.093 48.832-28.193-18.762-10.832-48.831 28.193z" fill="#ff6619"/><g><path d="m293.464 234.92 48.832-28.193-18.762-10.832-48.831 28.193z" fill="#ccd7f0"/><g><path d="m293.464 256.578 48.832-28.192v-21.664l-48.832 28.193z" fill="#b6c0d6"/><path d="m294.977 253.592 45.805-26.445v-17.438l-45.805 26.445z" fill="#a5aec2"/></g><path d="m274.703 245.746 18.761 10.832v-21.663l-18.761-10.832z" fill="#3b5fad"/><g fill="#a8a8a8"><path d="m286.84 250.021.837.484v-16.198l-.837-.483z"/><path d="m280.489 246.354.838.484v-16.198l-.838-.483z"/></g><path d="m283.523 250.839 1.12.647v-21.664l-1.12-.646z" fill="#737373"/></g><g><path d="m312.291 267.415 48.831-28.193-18.761-10.831-48.831 28.192z" fill="#ffc519"/><g><path d="m312.291 289.074 48.831-28.193v-21.663l-48.831 28.192z" fill="#db9b14"/><path d="m313.805 286.087 45.804-26.445v-17.438l-45.804 26.445z" fill="#f0ab17"/></g><path d="m293.53 278.242 18.761 10.832v-21.664l-18.761-10.832z" fill="#c28912"/><g fill="#a8a8a8"><path d="m305.667 282.517.838.483v-16.198l-.838-.483z"/><path d="m299.316 278.85.838.483v-16.197l-.838-.484z"/></g><path d="m302.35 283.334 1.121.647v-21.664l-1.121-.646z" fill="#737373"/></g><g><path d="m188.414 252.295 48.831-28.193-18.761-10.831-48.832 28.192z" fill="#ffc519"/><g><path d="m188.414 273.954 48.831-28.193v-21.663l-48.831 28.192z" fill="#db9b14"/><path d="m189.927 270.968 45.804-26.446v-17.439l-45.804 26.446z" fill="#f0ab17"/></g><path d="m169.652 263.122 18.762 10.832v-21.664l-18.762-10.831z" fill="#c28912"/><g fill="#a8a8a8"><path d="m181.79 267.397.837.483v-16.198l-.837-.483z"/><path d="m175.439 263.73.837.483v-16.198l-.837-.483z"/></g><path d="m178.473 268.214 1.12.647v-21.663l-1.12-.647z" fill="#737373"/></g><g><path d="m207.175 263.122 48.832-28.193-18.762-10.831-48.831 28.192z" fill="#ff6619"/><g><path d="m207.175 284.781 48.832-28.193v-21.664l-48.832 28.193z" fill="#db9b14"/><path d="m208.689 281.795 45.804-26.445v-17.439l-45.804 26.445z" fill="#f0ab17"/></g><path d="m188.414 273.949 18.761 10.832v-21.664l-18.761-10.832z" fill="#d15414"/><g fill="#a8a8a8"><path d="m200.551 278.224.838.483v-16.198l-.838-.483z"/><path d="m194.2 274.557.838.483v-16.198l-.838-.483z"/></g><path d="m197.234 279.042 1.121.646v-21.663l-1.121-.647z" fill="#737373"/></g><g><path d="m225.937 273.949 48.831-28.193-18.761-10.832-48.832 28.193z" fill="#578cff"/><g><path d="m225.937 295.608 48.831-28.193v-21.664l-48.831 28.194z" fill="#4a77d9"/><path d="m227.45 292.621 45.804-26.444v-17.439l-45.804 26.445z" fill="#3b5fad"/></g><path d="m207.175 284.776 18.762 10.832v-21.663l-18.762-10.833z" fill="#3b5fad"/><g fill="#a8a8a8"><path d="m219.313 289.051.837.483v-16.198l-.837-.483z"/><path d="m212.962 285.384.837.484v-16.199l-.837-.483z"/></g><path d="m215.996 289.869 1.12.646v-21.663l-1.12-.647z" fill="#737373"/></g><g><path d="m244.698 284.776 48.832-28.193-18.761-10.832-48.832 28.194z" fill="#d9e5ff"/><g><path d="m244.698 306.435 48.832-28.193v-21.664l-48.832 28.193z" fill="#4a77d9"/><path d="m246.212 303.448 45.804-26.445v-17.438l-45.804 26.445z" fill="#3b5fad"/></g><path d="m225.937 295.603 18.761 10.832v-21.664l-18.761-10.832z" fill="#b6c0d6"/><g fill="#a8a8a8"><path d="m238.074 299.877.838.484v-16.198l-.838-.483z"/><path d="m231.724 296.211.837.483v-16.198l-.837-.483z"/></g><path d="m234.758 300.695 1.12.647v-21.663l-1.12-.647z" fill="#737373"/></g><g><path d="m237.18 180.811 48.831-28.193-18.761-10.831-48.832 28.192z" fill="#d9e5ff"/><g><path d="m237.18 202.47 48.831-28.193v-21.664l-48.831 28.194z" fill="#b6c0d6"/><path d="m238.693 199.484 45.804-26.445v-17.439l-45.804 26.445z" fill="#a5aec2"/></g><path d="m218.418 191.638 18.762 10.832v-21.663l-18.762-10.833z" fill="#a5aec2"/><g fill="#a8a8a8"><path d="m230.556 195.913.837.484v-16.199l-.837-.483z"/><path d="m224.205 192.246.837.484v-16.199l-.837-.483z"/></g><path d="m227.239 196.731 1.12.646v-21.663l-1.12-.647z" fill="#737373"/></g><g><path d="m188.414 230.667 48.831-28.193-18.761-10.832-48.831 28.194z" fill="#578cff"/><g><path d="m188.414 252.326 48.831-28.193v-21.663l-48.831 28.193z" fill="#456fc9"/><path d="m189.928 249.34 45.804-26.445v-17.439l-45.804 26.445z" fill="#3b5fad"/></g><path d="m169.652 241.494 18.762 10.832v-21.663l-18.762-10.833z" fill="#3b5fad"/><g fill="#a8a8a8"><path d="m181.79 245.769.838.483v-16.197l-.838-.484z"/><path d="m175.439 242.102.837.484v-16.198l-.837-.484z"/></g><path d="m178.473 246.587 1.121.646v-21.663l-1.121-.647z" fill="#737373"/></g><g><path d="m225.937 252.321 48.831-28.193-18.76-10.831-48.832 28.193z" fill="#ffc519"/><g><path d="m225.937 273.98 48.831-28.193v-21.663l-48.831 28.192z" fill="#4a77d9"/><path d="m227.451 270.994 45.804-26.445v-17.439l-45.804 26.445z" fill="#3b5fad"/></g><path d="m207.175 263.148 18.762 10.832v-21.664l-18.762-10.831z" fill="#c28912"/><g fill="#a8a8a8"><path d="m219.313 267.423.838.483v-16.198l-.838-.483z"/><path d="m212.962 263.756.838.484v-16.198l-.838-.484z"/></g><path d="m215.997 268.24 1.12.647v-21.663l-1.12-.647z" fill="#737373"/></g><g><path d="m244.698 263.148 48.832-28.192-18.761-10.832-48.831 28.192z" fill="#578cff"/><g><path d="m244.698 284.807 48.832-28.193v-21.663l-48.832 28.192z" fill="#4a77d9"/><path d="m246.212 281.821 45.805-26.445v-17.439l-45.805 26.445z" fill="#3b5fad"/></g><path d="m225.937 273.975 18.762 10.832v-21.664l-18.762-10.831z" fill="#3b5fad"/><g fill="#a8a8a8"><path d="m238.075 278.25.837.484v-16.199l-.837-.483z"/><path d="m231.724 274.583.837.484v-16.199l-.837-.483z"/></g><path d="m234.758 279.068 1.12.646v-21.663l-1.12-.646z" fill="#737373"/></g><g><path d="m263.46 295.603 48.831-28.193-18.761-10.832-48.831 28.193z" fill="#578cff"/><g><path d="m263.46 317.262 48.831-28.193v-21.663l-48.831 28.192z" fill="#4a77d9"/><path d="m264.974 314.276 45.804-26.446v-17.438l-45.804 26.445z" fill="#3b5fad"/></g><path d="m244.698 306.43 18.762 10.832v-21.664l-18.762-10.832z" fill="#3b5fad"/><g fill="#a8a8a8"><path d="m256.836 310.704.838.484v-16.198l-.838-.483z"/><path d="m250.485 307.038.837.483v-16.197l-.837-.484z"/></g><path d="m253.519 311.522 1.121.647v-21.663l-1.121-.647z" fill="#737373"/></g><g><path d="m282.221 306.495 48.831-28.193-18.761-10.832-48.831 28.193z" fill="#ff6619"/><g><path d="m282.221 328.154 48.831-28.194v-21.663l-48.831 28.193z" fill="#e05a15"/><path d="m283.735 325.167 45.804-26.445v-17.439l-45.804 26.445z" fill="#d15414"/></g><path d="m263.46 317.321 18.761 10.833v-21.664l-18.761-10.832z" fill="#d15414"/><g fill="#a8a8a8"><path d="m275.598 321.596.837.484v-16.198l-.837-.484z"/><path d="m269.246 317.929.838.484v-16.198l-.838-.484z"/></g><path d="m272.281 322.414 1.12.647v-21.664l-1.12-.647z" fill="#737373"/></g></g></g></svg>