<svg height="512" viewBox="0 0 64 64" width="512" xmlns="http://www.w3.org/2000/svg"><g id="_19-Navigation" data-name="19-Navigation"><path d="m61.707 2.293a1.001 1.001 0 0 0 -1.07568-.22266l-58 23a1.00022 1.00022 0 0 0 .0845 1.88866l26.47949 7.84571 7.84569 26.47947a1.00015 1.00015 0 0 0 .91406.71484c.01513.001.03027.001.04541.001a.99993.99993 0 0 0 .9292-.63184l23-58a.99944.99944 0 0 0 -.22267-1.07518z" fill="#fc6067"/><path d="m61.93 3.37-23 58a.99974.99974 0 0 1 -.93.63h-.04a1.00658 1.00658 0 0 1 -.92-.72l-7.84-26.48 32.51-32.51a1.00794 1.00794 0 0 1 .22 1.08z" fill="#fb4b5b"/></g></svg>